<svg xmlns="http://www.w3.org/2000/svg" viewBox="0 0 512 512" width="512" height="512" role="img" aria-label="Briskwire App Icon">
  <defs>
    <linearGradient id="bg" x1="0" y1="0" x2="1" y2="1">
      <stop offset="0%" stop-color="#0A3237" stop-opacity="0.95"/>
      <stop offset="55%" stop-color="#00838F"/>
      <stop offset="100%" stop-color="#00BCD4"/>
    </linearGradient>
    <linearGradient id="fg" x1="0.1" y1="0.15" x2="0.9" y2="0.95">
      <stop offset="0%" stop-color="#ffffff" stop-opacity="0.78"/>
      <stop offset="55%" stop-color="#ffffff" stop-opacity="0.28"/>
      <stop offset="100%" stop-color="#ffffff" stop-opacity="1"/>
    </linearGradient>
    <clipPath id="rounded">
      <rect x="0" y="0" width="512" height="512" rx="112" ry="112"/>
    </clipPath>
  </defs>
  <g clip-path="url(#rounded)">
    <rect width="512" height="512" fill="url(#bg)"/>
    <g transform="translate(100,100) scale(13.0)" fill="url(#fg)">
      <path d="M9.5,6.5v3h-3v-3H9.5M11,5H5v6h6V5L11,5zM9.5,14.5v3h-3v-3H9.5M11,13H5v6h6V13L11,13zM17.5,6.5v3h-3v-3H17.5M19,5h-6v6h6V5L19,5zM13,13h1.5v1.5H13V13zM14.5,14.5H16V16h-1.5V14.5zM16,13h1.5v1.5H16V13zM13,16h1.5v1.5H13V16zM14.5,17.5H16V19h-1.5V17.5zM16,16h1.5v1.5H16V16zM17.5,14.5H19V16h-1.5V14.5zM17.5,17.5H19V19h-1.5V17.5zM22,7h-2V4h-3V2h5V7zM22,22v-5h-2v3h-3v2H22zM2,22h5v-2H4v-3H2V22zM2,2v5h2V4h3V2H2z"/>
    </g>
  </g>
</svg>
